<?xml version="1.0" standalone="no"?>
<!DOCTYPE svg PUBLIC "-//W3C//DTD SVG 1.1//EN" "http://www.w3.org/Graphics/SVG/1.1/DTD/svg11.dtd" >
<svg xmlns="http://www.w3.org/2000/svg">
<metadata>Generated by IcoMoon</metadata>
<defs>
<font id="icomoon" horiz-adv-x="512">
<font-face units-per-em="512" ascent="480" descent="-32" />
<missing-glyph horiz-adv-x="512" />
<glyph unicode="&#x20;" d="" horiz-adv-x="256" />
<glyph unicode="&#xe600;" d="M200.066 480l39.809-13.451-189.966-262.050 189.966-218.152-39.809-18.346-200.066 236.498 200.066 275.502z" horiz-adv-x="248" />
<glyph unicode="&#xe601;" d="M47.4 480l-39.809-13.451 189.966-262.050-189.966-218.152 39.809-18.346 200.066 236.498-200.066 275.502z" horiz-adv-x="248" />
<glyph unicode="&#xe60f;" d="M266.257 273.976c-16.73 8.468-5.32 29.77 11.026 21.497l103.188-52.233c15.003-7.595 5.115-29.667-11.026-21.497l-103.188 52.233zM386.454 226.161c-6.094-12.762-28.254-1.359-22.3 11.109l37.587 78.719c5.465 11.445 28.179 1.203 22.3-11.11l-37.587-78.719zM233.779 197.165l87.414-57.661c12.71-8.384-0.058-28.925-13.731-19.907l-87.415 57.661c-14.172 9.349-0.117 29.041 13.731 19.907zM267.368 47.932l40.016 84.476c5.818 12.283 25.243 5.275 18.984-7.938l-40.016-84.476c-6.488-13.695-25.322-5.443-18.984 7.938zM91.412 125.66c-12.462 5.601-1.825 26.875 10.351 21.402l76.865-34.546c11.176-5.023 1.672-26.806-10.351-21.402l-76.865 34.546zM183.756 95.812c-7.26-13.18-28.505-1.89-21.412 10.987l44.778 81.296c6.511 11.82 28.416 1.729 21.412-10.987l-44.778-81.296zM159.546 335.462c-16.647 8.764-5.407 30.585 10.857 22.023l102.675-54.055c14.928-7.859 5.203-30.477-10.857-22.022l-102.675 54.055zM136.852 271.853c-5.733-11.867-27.6 0.219-21.999 11.813l35.363 73.192c5.142 10.642 27.53-0.364 21.999-11.813l-35.363-73.192zM263.255 177.735c-7.872-22.75-71.459-0.378-63.767 21.849l48.554 140.321c7.059 20.402 71.362 0.099 63.767-21.849l-48.555-140.321zM334.582 393.616c2.438-19.857-11.683-37.931-31.541-40.37s-37.931 11.683-40.37 31.541c-2.438 19.857 11.683 37.931 31.541 40.37s37.932-11.683 40.37-31.541z" />
<glyph unicode="&#xe610;" d="M45 333.097c0 13.204 37.978 13.204 37.978 0v-230.097h-37.978v230.097zM80.238 165.022c-21.161 0-21.161 37.978 0 37.978h368.762v-37.978h-368.762zM429.022 237.223c0 7.702 37.978 7.702 37.978 0v-134.223h-37.978v134.223zM230.465 205.022c-27.603 0-26.969 37.978 0 37.978h170.258c24.755 0 26.63-37.978 0-37.978h-170.258zM105 225.742c6.296 0 73 0 73 0v39c0 16.123 26.177 7.123 26.177 0s0-59 0-59c0 0-86.177-0.5-99.177-0.5s-6.296 20.5 0 20.5zM170 262.5c0-16.845-13.655-30.5-30.5-30.5s-30.5 13.655-30.5 30.5c0 16.845 13.656 30.5 30.5 30.5s30.5-13.655 30.5-30.5z" />
<glyph unicode="&#xe611;" d="M224.268 227.008c0-8.377-10.31-15.168-23.029-15.168s-23.029 6.791-23.029 15.168c0 8.377 10.31 15.168 23.029 15.168s23.029-6.791 23.029-15.168z" />
<glyph unicode="&#xe612;" d="M167.083 169.819c-0.46 1.248-0.368 0.502-1.298 1.889-5.345 16.574 5.105 53.398 14.901 62.96-2.815 10.894 3.862 17.87 3.862 17.87l4.451-9.476h23.899l4.196 9.488c0 0 6.332-3.721 4.407-17.416 11.384-11.823 20.771-42.269 15.654-62.804-1.867-2.511-1.381-1.594-1.867-2.511z" />
<glyph unicode="&#xe613;" d="M191.702 230.275c0-1.933-1.562-3.5-3.489-3.5s-3.489 1.567-3.489 3.5c0 1.933 1.562 3.5 3.489 3.5s3.489-1.567 3.489-3.5z" />
<glyph unicode="&#xe614;" d="M189.841 230.275c0-0.902-0.729-1.633-1.629-1.633s-1.629 0.732-1.629 1.633c0 0.902 0.729 1.633 1.629 1.633s1.629-0.732 1.629-1.633z" />
<glyph unicode="&#xe615;" d="M217.29 230.275c0-1.933-1.562-3.5-3.489-3.5s-3.489 1.567-3.489 3.5c0 1.933 1.562 3.5 3.489 3.5s3.489-1.567 3.489-3.5z" />
<glyph unicode="&#xe616;" d="M215.429 230.275c0-0.902-0.729-1.633-1.629-1.633s-1.629 0.732-1.629 1.633c0 0.902 0.729 1.633 1.629 1.633s1.629-0.732 1.629-1.633z" />
<glyph unicode="&#xe617;" d="M197.293 229.165c2.444 0.642 4.894 0.642 6.978 0-3.341-1.633-3.341-1.633-3.341-1.633s0 0-3.637 1.633z" />
<glyph unicode="&#xe618;" d="M170.161 201.882c0 0-8.815-47.004 7.468-57.894 14.306-3.928 22.323-1.089 22.88 0.166 0.567 2.644 0.5 2.187 0.5 2.187s0.34 0.161 0.548-2.187c0-2.347 8.75-3.995 23.191-0.166 17.195 18.47 7.444 58.339 7.444 58.339z" />
<glyph unicode="&#xe619;" d="M234.038 181.97c0-18.043-14.581-32.67-32.566-32.67s-32.566 14.627-32.566 32.67c0 18.043 14.581 32.67 32.566 32.67s32.566-14.627 32.566-32.67z" />
<glyph unicode="&#xe61a;" d="M180.653 200.601l1.28-0.466c0 0 1.512 2.173 2.907 2.173s1.512-1.34 2.792-0.64c1.28 0.7-1.047 2.906-2.792 2.906-2.907-1.055-4.187-3.973-4.187-3.973z" />
<glyph unicode="&#xe61b;" d="M175.051 192.558l1.28-0.466c0 0 1.512 2.173 2.907 2.173s1.512-1.34 2.792-0.64c1.28 0.7-1.047 2.813-2.792 2.813-3.373 0-4.187-3.88-4.187-3.88z" />
<glyph unicode="&#xe61c;" d="M185.887 193.798l1.28-0.466c0 0 1.512 2.173 2.907 2.173s1.512-1.34 2.792-0.64c1.28 0.7-1.047 2.813-2.792 2.813-2.907-0.558-4.187-3.88-4.187-3.88z" />
<glyph unicode="&#xe61d;" d="M201.472 193.026l1.28-0.466c0 0 1.512 2.173 2.907 2.173s1.512-1.34 2.792-0.64c1.28 0.7-1.047 2.813-2.792 2.813-2.345-0.601-4.187-3.88-4.187-3.88z" />
<glyph unicode="&#xe61e;" d="M219.151 193.026l1.28-0.466c0 0 1.512 2.173 2.907 2.173s1.512-1.34 2.792-0.64c1.28 0.7-1.047 2.813-2.792 2.813-3.373 0-4.187-3.88-4.187-3.88z" />
<glyph unicode="&#xe61f;" d="M197.333 202.488l1.28-0.466c0 0 1.512 2.173 2.907 2.173s1.512-1.34 2.792-0.64c1.28 0.7-1.047 3.469-2.792 3.469-2.907-0.584-4.187-4.536-4.187-4.536z" />
<glyph unicode="&#xe620;" d="M212.734 200.907l1.28-0.466c0 0 1.512 2.173 2.907 2.173s1.512-1.34 2.792-0.64c1.28 0.7-1.726 3.188-3.471 3.188-4.187-0.812-3.507-4.255-3.507-4.255z" />
<glyph unicode="&#xe621;" d="M378 407.26c0-8.966-54.089-16.233-120.811-16.233s-120.811 7.268-120.811 16.233c0 8.966 54.089 16.233 120.811 16.233s120.811-7.268 120.811-16.233z" />
<glyph unicode="&#xe622;" d="M146.429 165.221l23.743-19.022 15.866 13.459 69.962-24.959 76.863 13.596 20.272-13.596 88.533 39.163c0 0 1.991-78.224-73.186-131.088-4.367-9.635-165.468-25.446-221.654 2.435-39.203 22.443-59.858 65.628-59.858 65.628l59.459 54.382z" />
<glyph unicode="&#xe623;" d="M256.579 279.959c-4.285-7.445-5.488-10.928-17.025-10.928s-16.143 14.042-12.532 24c-10.835 7.274-5.103 30.667 10.489 30.667-6.867 20.893 7.544 33.058 27.131 29.643 8.425 19.613 27.367 19.625 38.812 0 16.849 16.595 41.168-5.72 30.075-21.712 23.154 5.72 25.107-11.768 13.827-23.85 12.938 0 19.99-14.911 4.018-22.305 3.216-13.578-8.819-19.901-20.553-8.449 0-11.452-14.141-22.315-31.337 3.645-21.014-23.546-34.841-14.494-42.904-0.713z" />
<glyph unicode="&#xe624;" d="M279.866 287.579h22.474v-171.030h-22.474v171.030z" />
<glyph unicode="&#xe625;" d="M38.703 309.068c-7.185 9.197 22.733 32.59 29.927 23.382l116.761-149.447c6.565-8.403-23.435-31.692-29.928-23.382l-116.761 149.447zM178.458 175.041c3.23 5.169 35.441-14.95 32.208-20.125l-52.489-84c-2.952-4.723-35.126 15.454-32.208 20.125l52.489 84zM425.762 175.149c-3.139 5.024-35.351-15.095-32.207-20.125l51.021-81.649c2.869-4.591 35.045 15.585 32.207 20.125l-51.020 81.649zM165.924 153.353c-16.837 0-16.857 37.978 0 37.978h273.601c15.384 0 15.215-37.978 0-37.978h-273.601zM123.717 300.573c-4.476 5.729 37.538 38.566 42.020 32.829l72.738-93.1c4.090-5.235-37.975-38.007-42.019-32.829l-72.738 93.1zM200.511 206.374c-12.673 0-12.689 34.626 0 34.626h205.942c11.579 0 11.452-34.626 0-34.626h-205.942zM243.426 221.757c-4.28-4.591-29.609 19.019-25.324 23.615l69.56 74.594c3.911 4.195 29.192-19.466 25.324-23.615l-69.56-74.594zM349.563 215.642c4.438-4.438 28.928 20.041 24.485 24.484l-72.121 72.121c-4.055 4.055-28.495-20.474-24.485-24.484l72.121-72.122zM148 350.5c0-16.845-13.655-30.5-30.5-30.5s-30.5 13.655-30.5 30.5c0 16.844 13.656 30.5 30.5 30.5s30.5-13.656 30.5-30.5z" />
<glyph unicode="&#xe626;" d="M121 169.865h300v-127.865h-300v127.865z" />
<glyph unicode="&#xe627;" d="M121 213h300v-43.135h-300v43.135z" />
<glyph unicode="&#xe628;" d="M212.132 201.359h22.839l-11.42-19.853h-22.322l10.903 19.853z" />
<glyph unicode="&#xe629;" d="M272.132 201.359h22.839l-11.42-19.853h-22.322l10.902 19.853z" />
<glyph unicode="&#xe62a;" d="M333.132 201.359h22.839l-11.42-19.853h-22.322l10.902 19.853z" />
<glyph unicode="&#xe62b;" d="M99 249.715l257.15 154.511 22.216-36.974-257.15-154.512-22.216 36.974z" />
<glyph unicode="&#xe62c;" d="M183.111 286.673l19.577 11.764 0.436-22.899-19.134-11.497-0.88 22.632z" />
<glyph unicode="&#xe62d;" d="M234.541 317.576l19.577 11.763 0.436-22.899-19.134-11.497-0.88 22.632z" />
<glyph unicode="&#xe62e;" d="M286.829 348.993l19.577 11.763 0.437-22.899-19.134-11.497-0.88 22.632z" />
<glyph unicode="&#xe62f;" d="M152 212.5c0-16.844-13.655-30.5-30.5-30.5s-30.5 13.656-30.5 30.5c0 16.845 13.656 30.5 30.5 30.5s30.5-13.655 30.5-30.5z" />
<glyph unicode="&#xe630;" d="M48.008 27.022c-25.748 0-25.779 37.978 0 37.978h418.413c23.526 0 23.268-37.978 0-37.978h-418.413z" />
<glyph unicode="&#xe631;" d="M319 375c0-34.794-28.206-63-63-63s-63 28.206-63 63c0 34.794 28.206 63 63 63s63-28.206 63-63z" />
<glyph unicode="&#xe632;" d="M161 285.129v-205.129h194v205.129h-194z" />
<glyph unicode="&#xe633;" d="M200.077 217.75v-71.75l57.162-21.5 58.683 22.769v70.481l-48.971-14.755c-3.016-0.909-9.048-2.726-9.048-2.726l-57.825 17.481z" />
<glyph unicode="&#xe634;" d="M160.849 285.122c-15.543 0.002-25.017-7.901-30.849-18.060-10.928-21.192-71.594-135.191-82.086-155.048s2.746-40.763 25.575-28.23c22.829 12.534 118.926 67.928 136.511 83.599s0 38.753-15.4 29.269c-15.4-9.483-21.6-14.9-21.6-14.9s-9.172 72.626-12.151 103.369z" />
<glyph unicode="&#xe635;" d="M354.491 285.129c15.543 0.002 25.017-7.901 30.849-18.060 10.928-21.192 71.594-135.191 82.086-155.048s-2.746-40.763-25.575-28.23c-22.829 12.534-118.926 67.928-136.51 83.599s0 38.753 15.401 29.269c15.401-9.483 21.599-14.9 21.599-14.9s9.172 72.626 12.151 103.369z" />
</font>
</defs>
</svg>
