<?xml version="1.0" encoding="UTF-8" standalone="no"?>
<svg width="512px" height="512px" viewBox="0 0 512 512" version="1.1" xmlns="http://www.w3.org/2000/svg" xmlns:xlink="http://www.w3.org/1999/xlink" xmlns:sketch="http://www.bohemiancoding.com/sketch/ns">
    <!-- Generator: Sketch 3.2.2 (9983) - http://www.bohemiancoding.com/sketch -->
    <title>Exercise</title>
    <desc>Created with Sketch.</desc>
    <defs></defs>
    <g id="Page-1" stroke="none" stroke-width="1" fill="none" fill-rule="evenodd" sketch:type="MSPage">
        <g id="Exercise" sketch:type="MSArtboardGroup" fill="#333333">
            <g id="Running-man" sketch:type="MSLayerGroup" transform="translate(256.000000, 256.000000) rotate(-7.000000) translate(-256.000000, -256.000000) translate(76.000000, 61.000000)">
                <g id="hand-2" transform="translate(188.845425, 112.832172)" sketch:type="MSShapeGroup">
                    <path d="M7.42567998,33.8146224 C-8.14706511,23.3706958 5.77379131,3.61752518 20.9887251,13.8214842 L117.041847,78.2399119 C131.007655,87.60614 118.502669,108.30887 103.478802,98.2330502 L7.42567998,33.8146224 L7.42567998,33.8146224 Z" id="Path-13"></path>
                    <path d="M124.727719,96.8894373 C118.192202,109.43134 96.4436961,97.262251 102.829048,85.0085205 L143.140298,7.64971743 C149.001422,-3.59799873 171.344135,7.43078398 165.038969,19.5306342 L124.727719,96.8894373 L124.727719,96.8894373 Z" id="Path-13" transform="translate(133.909027, 52.568555) rotate(5.000000) translate(-133.909027, -52.568555) "></path>
                </g>
                <g id="leg-1" transform="translate(125.149435, 213.787274)" sketch:type="MSShapeGroup">
                    <path d="M24.5330194,9.29970686 L111.9474,66.9602945 C124.657164,75.3439548 111.889775,95.8858841 98.2171115,86.8670725 L10.8027307,29.2064848 C-3.36944659,19.8581824 10.6864729,0.166198132 24.5330194,9.29970686 Z" id="Path-13" transform="translate(61.038119, 48.025360) rotate(7.000000) translate(-61.038119, -48.025360) "></path>
                    <path d="M45.8865322,158.516065 L93.112455,77.8497598 C99.9789492,66.1211437 118.718978,74.7948179 111.332274,87.4120014 L64.1063511,168.078307 C56.4497831,181.156443 38.4058873,171.293708 45.8865322,158.516065 Z" id="Path-13" transform="translate(78.566985, 123.281709) rotate(2.000000) translate(-78.566985, -123.281709) "></path>
                </g>
                <g id="leg-2" transform="translate(0.000000, 216.162688)" sketch:type="MSShapeGroup">
                    <path d="M4.65371826,56.3862164 C-7.03275428,49.3083908 6.11793059,29.4895703 17.5358858,36.4047705 L89.618371,80.0609944 C100.098928,86.4084661 88.0107739,106.870801 76.7362035,100.04244 L4.65371826,56.3862164 L4.65371826,56.3862164 Z" id="Path-13"></path>
                    <path d="M92.671745,97.2654248 C83.8599612,109.46274 64.1491037,95.6680551 72.7584212,83.7509949 L127.109747,8.5176189 C135.012251,-2.42106713 155.524274,10.264641 147.02307,22.0320488 L92.671745,97.2654248 L92.671745,97.2654248 Z" id="Path-13"></path>
                </g>
                <g id="hand-1" transform="translate(45.132869, 45.132869)" sketch:type="MSShapeGroup">
                    <path d="M52.7157225,27.4817684 C37.2614135,16.7546584 51.0763971,-3.53411247 66.1756161,6.94652328 L161.498221,73.111634 C175.357815,82.731824 162.947933,103.995901 148.038327,93.6468791 L52.7157225,27.4817684 L52.7157225,27.4817684 Z" id="Path-13"></path>
                    <path d="M22.4395587,87.8505274 C15.3028779,98.9298189 -4.92844333,84.270007 2.04425965,73.4452818 L46.0635038,5.10790616 C52.4637575,-4.82812405 73.3439438,8.82436171 66.4588029,19.5131518 L22.4395587,87.8505274 L22.4395587,87.8505274 Z" id="Path-13"></path>
                </g>
                <g id="upper-body" transform="translate(118.770708, 0.000000)" sketch:type="MSShapeGroup">
                    <path d="M62.7914885,241.80426 C52.2057351,263.425114 -8.18022388,233.470806 2.16230319,212.346729 L67.4555225,78.9887063 C76.9489423,59.5988873 138.297355,87.5874337 128.084708,108.446238 L62.7914885,241.80426 L62.7914885,241.80426 Z" id="body"></path>
                    <ellipse id="head" cx="123.672059" cy="36.2250658" rx="36.2250658" ry="36.2250658"></ellipse>
                </g>
            </g>
        </g>
    </g>
</svg>