<?xml version="1.0" encoding="UTF-8" standalone="no"?>
<svg width="512px" height="512px" viewBox="0 0 512 512" version="1.1" xmlns="http://www.w3.org/2000/svg" xmlns:xlink="http://www.w3.org/1999/xlink" xmlns:sketch="http://www.bohemiancoding.com/sketch/ns">
    <!-- Generator: Sketch 3.2.2 (9983) - http://www.bohemiancoding.com/sketch -->
    <title>MicroLandscape</title>
    <desc>Created with Sketch.</desc>
    <defs></defs>
    <g id="Page-1" stroke="none" stroke-width="1" fill="none" fill-rule="evenodd" sketch:type="MSPage">
        <g id="MicroLandscape" sketch:type="MSArtboardGroup">
            <g id="Micro-landscape" sketch:type="MSLayerGroup" transform="translate(70.000000, 56.000000)">
                <g id="Totoro" transform="translate(92.858325, 171.089300)" sketch:type="MSShapeGroup">
                    <ellipse id="face" stroke="#979797" fill="#D8D8D8" cx="38.381439" cy="25.9026458" rx="23.0288634" ry="15.168216"></ellipse>
                    <path d="M16.1153152,29.9544178 C16.1153152,29.9544178 -3.35639355,60.0923581 4.43229002,82.9748745" id="left-hand" stroke="#979797"></path>
                    <path d="M73.9715006,29.9622067 C73.9715006,29.9622067 54.4997918,60.100147 62.2884754,82.9826633" id="left-hand" stroke="#979797" transform="translate(67.210491, 56.472435) scale(-1, 1) translate(-67.210491, -56.472435) "></path>
                    <path d="M4.22522945,83.0915619 C3.76512918,81.8431386 3.8572254,82.589297 2.92676635,81.2028273 C-2.41837593,64.6294547 8.0316429,27.8046248 17.8277825,18.2428269 C15.013512,7.34878031 21.6895265,0.372404037 21.6895265,0.372404037 L26.1402028,9.84828458 L50.0397696,9.84828501 L54.2350967,0.360413391 C54.2350967,0.360413391 60.5666633,4.08170496 58.6423104,17.7761129 C70.0263812,29.5992121 79.4131121,60.0451094 74.2955869,80.5805367 C72.4286134,83.0915619 72.9146466,82.1749771 72.4286134,83.0915619" id="Path-51" fill="#333333"></path>
                    <g id="left-stubble" transform="translate(0.000000, 24.269146)" stroke="#333333">
                        <path d="M18.3080556,5.68527223 C18.3080556,5.68527223 12.4663954,1.24517925 7.42640862,0.389536328" id="Path-52"></path>
                        <path d="M16.9291718,7.09253805 C16.9291718,7.09253805 10.7605537,3.50096523 1.07363759,4.58104273" id="Path-53"></path>
                        <path d="M18.3200081,8.76686826 C18.3200081,8.76686826 6.96890387,6.97735127 0.292888744,10.0349659" id="Path-54"></path>
                    </g>
                    <g id="left-stubble" transform="translate(66.557523, 30.417600) scale(-1, 1) translate(-66.557523, -30.417600) translate(56.817398, 24.735860)" stroke="#333333">
                        <path d="M18.3080556,5.68527223 C18.3080556,5.68527223 12.4663954,1.24517925 7.42640862,0.389536328" id="Path-52"></path>
                        <path d="M16.9291718,7.09253805 C16.9291718,7.09253805 10.7605537,3.50096523 1.07363759,4.58104273" id="Path-53"></path>
                        <path d="M18.3200081,8.76686826 C18.3200081,8.76686826 6.96890387,6.97735127 0.292888744,10.0349659" id="Path-54"></path>
                    </g>
                    <path id="mouth" stroke="#979797" d="M37.8763467,30.4946647 C37.8763467,30.4946647 38.419645,30.1326674 39.1140565,30.2798374"></path>
                    <g id="right-eye" transform="translate(21.865789, 19.135288)">
                        <ellipse id="Oval-17" stroke="#979797" fill="#D8D8D8" cx="3.48922173" cy="3.50035754" rx="3.48922173" ry="3.50035754"></ellipse>
                        <ellipse id="Oval-18" fill="#4A4A4A" cx="3.48922173" cy="3.50035754" rx="1.62830347" ry="1.63350019"></ellipse>
                    </g>
                    <g id="left-eye" transform="translate(47.453415, 19.135288)">
                        <ellipse id="Oval-17" stroke="#979797" fill="#D8D8D8" cx="3.48922173" cy="3.50035754" rx="3.48922173" ry="3.50035754"></ellipse>
                        <ellipse id="Oval-18" fill="#4A4A4A" cx="3.48922173" cy="3.50035754" rx="1.62830347" ry="1.63350019"></ellipse>
                    </g>
                    <g id="nose" transform="translate(33.961758, 21.468860)">
                        <path id="Path-59" stroke="#FFFFFF" d="M0,0.851034554 C0,0.851034554 1.93123596,-0.199072705 4.04276448,0.851034554 C6.05822471,-0.199072708 7.91708045,0.851034554 7.91708045,0.851034554"></path>
                        <path d="M0.473407427,2.27751128 C2.9176383,1.63577909 5.36737876,1.63577907 7.45185088,2.27751128 C4.11090085,3.9110115 4.11090085,3.91101147 4.11090085,3.91101147 C4.11090085,3.91101147 4.11090085,3.91101147 0.473407427,2.27751128 Z" id="Path-60" fill="#F0F0F0"></path>
                    </g>
                    <path d="M7.30252915,51.0280421 C7.30252915,51.0280421 -1.51245064,98.0318908 14.7705841,108.92189 C29.0763932,112.849159 37.0935759,110.010965 37.6504278,108.755151 C38.2178795,106.110436 38.1502997,106.568873 38.1502997,106.568873 C38.1502997,106.568873 38.4901721,106.408209 38.6981029,108.755151 C38.6981052,111.102092 47.4484168,112.7498 61.8894646,108.92189 C79.084028,90.4518812 69.3331376,50.5825973 69.3331376,50.5825973" id="Path-61" fill="#333333"></path>
                    <path d="M2.90950208,81.5086512 C2.90950208,81.5086512 2.6205509,82.7337763 3.48854024,83.7255443 C4.35652958,84.7173122 3.77499262,82.1503834 3.77499262,82.1503834 C3.77499262,82.1503834 3.83314632,84.0172407 4.64729801,84.3089372 C5.46144971,84.6006337 4.64729805,82.7337763 4.64729805,82.7337763 L2.90950208,81.5086512 Z" id="Path-62" stroke="#333333"></path>
                    <path d="M71.8718595,81.644069 C71.8718595,81.644069 71.5829083,82.8691942 72.4508976,83.8609621 C73.318887,84.8527301 72.73735,82.2858012 72.73735,82.2858012 C72.73735,82.2858012 72.7955037,84.1526586 73.6096554,84.4443551 C74.4238071,84.7360515 73.6096555,82.8691942 73.6096555,82.8691942 L71.8718595,81.644069 Z" id="Path-62" stroke="#333333" transform="translate(72.898600, 83.059682) scale(-1, 1) translate(-72.898600, -83.059682) "></path>
                    <path d="M18.1166934,109.817793 C18.1166934,109.817793 14.5163517,111.207291 15.1351807,111.300223 C15.7540098,111.393154 20.1962682,110.177041 20.675456,110.20205 C21.1546439,110.22706 16.3833408,111.40468 17.0251759,111.492351 C17.6670111,111.580023 22.6617523,110.507342 23.2481892,110.553473 C23.834626,110.599603 18.4529783,111.431756 19.1781121,111.492351 C19.9032459,111.552947 25.8804382,111.955879 30.8247526,110.861177 C24.3727582,111.21973 18.1166934,109.817793 18.1166934,109.817793 Z" id="right-foot" stroke="#979797"></path>
                    <path d="M49.4908061,109.817793 C49.4908061,109.817793 45.8904643,111.207291 46.5092933,111.300223 C47.1281224,111.393154 51.5703808,110.177041 52.0495687,110.20205 C52.5287565,110.22706 47.7574534,111.40468 48.3992885,111.492351 C49.0411237,111.580023 54.0358649,110.507342 54.6223018,110.553473 C55.2087386,110.599603 49.8270909,111.431756 50.5522247,111.492351 C51.2773585,111.552947 57.2545366,112.394924 62.198851,111.300223 C55.7468566,111.658775 49.4908061,109.817793 49.4908061,109.817793 Z" id="left-foot" stroke="#979797" transform="translate(54.318311, 110.838174) scale(-1, 1) translate(-54.318311, -110.838174) "></path>
                    <g id="belly" transform="translate(6.047984, 38.270576)">
                        <ellipse fill="#FCFCFC" cx="32.5660695" cy="32.6700037" rx="32.5660695" ry="32.6700037"></ellipse>
                        <g id="spots" transform="translate(6.047984, 7.467429)" stroke="#979797" fill="#D8D8D8">
                            <path d="M5.69860783,6.57183013 L6.97798913,7.03854447 C6.97798913,7.03854447 8.48998521,4.86540583 9.8856739,4.86540583 C11.2813626,4.86540583 11.3978971,6.20538645 12.6772784,5.50531494 C13.9566597,4.80524343 11.6302848,2.59883317 9.8856739,2.59883316 C6.97798913,3.65395396 5.69860783,6.57183013 5.69860783,6.57183013 Z" id="Path-64"></path>
                            <path d="M0.0965585268,14.6139927 L1.37593983,15.0807071 C1.37593983,15.0807071 2.88793591,12.9075684 4.2836246,12.9075684 C5.67931329,12.9075684 5.79584784,14.2475491 7.07522914,13.5474775 C8.35461045,12.847406 6.02823546,10.7344298 4.2836246,10.7344298 C0.910710263,10.7344298 0.0965585268,14.6139927 0.0965585268,14.6139927 Z" id="Path-64"></path>
                            <path d="M10.9328947,13.3742828 L12.212276,13.8409971 C12.212276,13.8409971 13.7242721,11.6678585 15.1199608,11.6678585 C16.5156495,11.6678585 16.6321841,13.0078391 17.9115654,12.3077676 C19.1909467,11.6076961 16.8645717,9.49471983 15.1199608,9.49471983 C12.212276,10.0525893 10.9328947,13.3742828 10.9328947,13.3742828 Z" id="Path-64"></path>
                            <path d="M26.5180851,14.1472784 L27.7974664,14.6139927 C27.7974664,14.6139927 29.3094625,12.4408541 30.7051512,12.4408541 C32.1008399,12.4408541 32.2173744,13.7808347 33.4967557,13.0807632 C34.776137,12.3806917 32.4497621,10.2677155 30.7051512,10.2677155 C28.360376,10.8693394 26.5180851,14.1472784 26.5180851,14.1472784 Z" id="Path-64"></path>
                            <path d="M44.1968086,14.1472784 L45.4761899,14.6139927 C45.4761899,14.6139927 46.9881859,12.4408541 48.3838746,12.4408541 C49.7795633,12.4408541 49.8960979,13.7808347 51.1754792,13.0807632 C52.4548605,12.3806917 50.1284855,10.2677155 48.3838746,10.2677155 C45.0109603,10.2677155 44.1968086,14.1472784 44.1968086,14.1472784 Z" id="Path-64"></path>
                            <path d="M22.3792983,4.68415902 L23.6586796,5.15087335 C23.6586796,5.15087335 25.1706757,2.97773471 26.5663644,2.97773471 C27.9620531,2.97773471 28.0785876,4.31771534 29.3579689,3.61764383 C30.6373502,2.91757232 28.3109753,0.148582869 26.5663644,0.148582867 C23.6586796,0.73197579 22.3792983,4.68415902 22.3792983,4.68415902 Z" id="Path-64"></path>
                            <path d="M37.7801532,6.26554884 L39.0595345,6.73226318 C39.0595345,6.73226318 40.5715306,4.55912454 41.9672193,4.55912454 C43.3629079,4.55912454 43.4794425,5.89910516 44.7588238,5.19903366 C46.0382051,4.49896215 43.0321393,2.01042671 41.2875285,2.01042671 C37.1004624,2.82216327 37.7801532,6.26554884 37.7801532,6.26554884 Z" id="Path-64"></path>
                        </g>
                    </g>
                </g>
                <g id="Bottle" stroke="#333333" sketch:type="MSShapeGroup">
                    <path d="M73.2117095,22.856417 C73.2117095,22.856417 73.2117095,22.856417 104.771994,54.4452414 C8.02071707,118.627975 -56.7168719,284.184741 73.2117069,377.499073 C104.806871,398.631213 267.95397,399.474597 299.669622,380.774317 C430.289395,282.561386 360.380542,107.28986 267.919104,54.4452414 L299.66963,22.856417 L73.2117095,22.856417 Z" id="Path-46" stroke-width="10"></path>
                    <ellipse id="bottleneck" stroke-width="10" fill="#FFFFFF" cx="187.189037" cy="16.7407115" rx="120.810963" ry="16.2335422"></ellipse>
                    <path d="M76.4288696,258.778963 L100.171879,277.800782 L116.037699,264.341805 L186.000004,289.300782 L262.863231,275.705285 L283.134754,289.300782 L371.667827,250.137456 C371.667827,250.137456 373.658972,328.361252 298.48179,381.224895 C294.114615,390.86039 133.014147,406.670655 76.8278177,378.789863 C37.6246483,356.346674 16.9704779,313.16133 16.9704779,313.16133 L76.4288696,258.778963 Z" id="clay" fill="#333333"></path>
                </g>
                <g id="Tree" transform="translate(151.299077, 55.831150)" fill="#333333" sketch:type="MSShapeGroup">
                    <path d="M35.2798673,88.2091414 C30.9949702,95.6547622 29.7915003,99.1365726 18.254445,99.1365743 C6.71738971,99.1365761 2.11168965,85.094281 5.72210002,75.1372557 C-5.11280531,67.8634303 0.619104999,44.4700637 16.2113943,44.4700634 C9.34426177,23.5771343 23.7554052,11.4122003 43.3422904,14.8270231 C51.7665803,-4.7852948 70.7094825,-4.79825969 82.1542002,14.8270236 C99.0027801,-1.76801502 123.322137,20.54689 112.229197,36.5384719 C135.383065,30.8186047 137.335971,48.3063062 126.05617,60.3879474 C138.993475,60.3879474 146.046442,75.2987567 130.074228,82.6934213 C133.289917,96.2711769 121.255217,102.594498 109.521392,91.1418042 C109.521392,102.594498 95.3806174,113.456704 78.1839316,87.4968307 C57.1704425,111.04288 43.3422904,101.991047 35.2798673,88.2091414 Z" id="Path-96"></path>
                    <rect id="Rectangle-9" x="58.5674528" y="80.589818" width="22.4735575" height="171.030086"></rect>
                </g>
            </g>
        </g>
    </g>
</svg>