<?xml version="1.0" encoding="UTF-8" standalone="no"?>
<svg width="512px" height="512px" viewBox="0 0 512 512" version="1.1" xmlns="http://www.w3.org/2000/svg" xmlns:xlink="http://www.w3.org/1999/xlink" xmlns:sketch="http://www.bohemiancoding.com/sketch/ns">
    <!-- Generator: Sketch 3.2.2 (9983) - http://www.bohemiancoding.com/sketch -->
    <title>Rest</title>
    <desc>Created with Sketch.</desc>
    <defs></defs>
    <g id="Page-1" stroke="none" stroke-width="1" fill="none" fill-rule="evenodd" sketch:type="MSPage">
        <g id="Rest" sketch:type="MSArtboardGroup" fill="#333333">
            <g id="Resting-man" sketch:type="MSLayerGroup" transform="translate(33.000000, 99.000000)">
                <g id="Chair" transform="translate(0.000000, 41.000000)" sketch:type="MSShapeGroup">
                    <path d="M59.8104824,-0.776138662 C59.8104824,-12.446832 97.788998,-12.4609966 97.788998,-0.776138662 L97.788998,188.875715 C97.788998,199.53941 59.8104824,199.422221 59.8104824,188.875715 L59.8104824,-0.776138662 Z" id="书桌" transform="translate(78.799740, 93.647565) rotate(-38.000000) translate(-78.799740, -93.647565) "></path>
                    <path d="M116.439854,167.528912 C116.439854,161.433596 154.418369,161.426198 154.418369,167.528912 L154.418369,266.579407 C154.418369,272.148793 116.439854,272.087588 116.439854,266.579407 L116.439854,167.528912 Z" id="书桌" transform="translate(135.429111, 216.844088) rotate(32.000000) translate(-135.429111, -216.844088) "></path>
                    <path d="M383.071395,167.630027 C383.071395,161.705236 421.04991,161.698045 421.04991,167.630027 L421.04991,263.909458 C421.04991,269.323033 383.071395,269.263541 383.071395,263.909458 L383.071395,167.630027 Z" id="书桌" transform="translate(402.060653, 215.565549) scale(-1, 1) rotate(32.000000) translate(-402.060653, -215.565549) "></path>
                    <path d="M250.155084,31.4373741 C250.155084,14.6006378 288.1336,14.5802031 288.1336,31.4373741 L288.1336,305.038793 C288.1336,320.422781 250.155084,320.253719 250.155084,305.038793 L250.155084,31.4373741 Z" id="书桌" transform="translate(269.144342, 167.657816) rotate(-90.000000) translate(-269.144342, -167.657816) "></path>
                </g>
                <g id="Man" transform="translate(54.000000, 0.000000)" sketch:type="MSShapeGroup">
                    <path d="M67.2797537,51.5424461 C67.2797537,44.2720569 120.60324,44.2632329 120.60324,51.5424461 L120.60324,169.688194 C120.60324,176.331262 67.2797537,176.258258 67.2797537,169.688194 L67.2797537,51.5424461 Z" id="书桌" transform="translate(93.941497, 110.364751) rotate(-38.000000) translate(-93.941497, -110.364751) "></path>
                    <path d="M198.731943,54.7786971 C198.731943,42.1055353 233.358024,42.090154 233.358024,54.7786971 L233.358024,260.720929 C233.358024,272.300595 198.731943,272.17334 198.731943,260.720929 L198.731943,54.7786971 Z" id="书桌" transform="translate(216.044983, 157.313040) rotate(-90.000000) translate(-216.044983, -157.313040) "></path>
                    <path d="M161.083742,59.5155072 C161.083742,53.2389902 195.709822,53.2313725 195.709822,59.5155072 L195.709822,161.510568 C195.709822,167.245519 161.083742,167.182495 161.083742,161.510568 L161.083742,59.5155072 Z" id="书桌" transform="translate(178.396782, 110.296721) rotate(-137.000000) translate(-178.396782, -110.296721) "></path>
                    <path d="M221.583742,66.4263011 C221.583742,60.1497841 256.209822,60.1421663 256.209822,66.4263011 L256.209822,168.421362 C256.209822,174.156313 221.583742,174.093289 221.583742,168.421362 L221.583742,66.4263011 Z" id="书桌" transform="translate(238.896782, 117.207515) scale(-1, 1) rotate(-135.000000) translate(-238.896782, -117.207515) "></path>
                    <circle id="head" cx="30.5" cy="30.5" r="30.5"></circle>
                </g>
            </g>
        </g>
    </g>
</svg>