<?xml version="1.0" encoding="UTF-8" standalone="no"?>
<svg width="512px" height="512px" viewBox="0 0 512 512" version="1.1" xmlns="http://www.w3.org/2000/svg" xmlns:xlink="http://www.w3.org/1999/xlink" xmlns:sketch="http://www.bohemiancoding.com/sketch/ns">
    <!-- Generator: Sketch 3.2.2 (9983) - http://www.bohemiancoding.com/sketch -->
    <title>Studio</title>
    <desc>Created with Sketch.</desc>
    <defs></defs>
    <g id="Page-1" stroke="none" stroke-width="1" fill="none" fill-rule="evenodd" sketch:type="MSPage">
        <g id="Studio" sketch:type="MSArtboardGroup">
            <g id="Clap-stick" sketch:type="MSLayerGroup" transform="translate(91.000000, 75.000000)">
                <rect id="board" fill="#333333" sketch:type="MSShapeGroup" x="30" y="235.135135" width="300" height="127.864865"></rect>
                <g id="blade" transform="translate(30.000000, 192.000000)" sketch:type="MSShapeGroup">
                    <rect id="Rectangle-7" fill="#333333" x="0" y="0" width="300" height="43.1351351"></rect>
                    <path d="M91.1322958,11.6410455 L113.971937,11.6410455 L102.552116,31.4940896 L80.229765,31.4940896 L91.1322958,11.6410455 Z" id="Path-40" stroke="#979797" fill="#FFFFFF"></path>
                    <path d="M151.132296,11.6410455 L173.971937,11.6410455 L162.552116,31.4940896 L140.229765,31.4940896 L151.132296,11.6410455 Z" id="Path-40" stroke="#979797" fill="#FFFFFF"></path>
                    <path d="M212.132296,11.6410455 L234.971937,11.6410455 L223.552116,31.4940896 L201.229765,31.4940896 L212.132296,11.6410455 Z" id="Path-40" stroke="#979797" fill="#FFFFFF"></path>
                </g>
                <g id="blade" transform="translate(147.905933, 96.886608) rotate(-31.000000) translate(-147.905933, -96.886608) translate(-2.094067, 74.886608)" sketch:type="MSShapeGroup">
                    <rect id="Rectangle-7" fill="#333333" x="0" y="0" width="300" height="43.1351351"></rect>
                    <path d="M91.1322958,11.6410455 L113.971937,11.6410455 L102.552116,31.4940896 L80.229765,31.4940896 L91.1322958,11.6410455 Z" id="Path-40" stroke="#979797" fill="#FFFFFF"></path>
                    <path d="M151.132296,11.6410455 L173.971937,11.6410455 L162.552116,31.4940896 L140.229765,31.4940896 L151.132296,11.6410455 Z" id="Path-40" stroke="#979797" fill="#FFFFFF"></path>
                    <path d="M212.132296,11.6410455 L234.971937,11.6410455 L223.552116,31.4940896 L201.229765,31.4940896 L212.132296,11.6410455 Z" id="Path-40" stroke="#979797" fill="#FFFFFF"></path>
                </g>
                <circle id="axis" stroke="#FFFFFF" stroke-width="5" fill="#333333" sketch:type="MSShapeGroup" cx="30.5" cy="192.5" r="30.5"></circle>
            </g>
        </g>
    </g>
</svg>