<?xml version="1.0" encoding="UTF-8" standalone="no"?>
<svg width="512px" height="512px" viewBox="0 0 512 512" version="1.1" xmlns="http://www.w3.org/2000/svg" xmlns:xlink="http://www.w3.org/1999/xlink" xmlns:sketch="http://www.bohemiancoding.com/sketch/ns">
    <!-- Generator: Sketch 3.2.2 (9983) - http://www.bohemiancoding.com/sketch -->
    <title>Study</title>
    <desc>Created with Sketch.</desc>
    <defs></defs>
    <g id="Page-1" stroke="none" stroke-width="1" fill="none" fill-rule="evenodd" sketch:type="MSPage">
        <g id="Study" sketch:type="MSArtboardGroup">
            <g id="Reading-man" sketch:type="MSLayerGroup" transform="translate(28.000000, 42.000000)">
                <path d="M209.337343,183.670458 C209.337343,157.922423 247.315858,157.891173 247.315858,183.670458 L247.315858,602.082838 C247.315858,625.609219 209.337343,625.350677 209.337343,602.082838 L209.337343,183.670458 Z" id="书桌" fill="#333333" sketch:type="MSShapeGroup" transform="translate(228.326600, 391.989258) rotate(-90.000000) translate(-228.326600, -391.989258) "></path>
                <g id="Reading-Man" transform="translate(16.000000, 0.000000)" sketch:type="MSShapeGroup">
                    <circle id="Oval-7" fill="#333333" cx="212" cy="63" r="63"></circle>
                    <path d="M117,152.871094 L117,358 L311,358 L311,152.871094 L117,152.871094 Z" id="body" fill="#333333"></path>
                    <path d="M156.077637,220.25 L156.077637,292 L213.239401,313.5 L271.922363,290.731445 L271.922363,220.25 L222.950625,235.005276 C219.934636,235.913999 213.90266,237.731445 213.90266,237.731445 L156.077637,220.25 Z" id="Path-22" fill="#FFFFFF"></path>
                    <path d="M116.848755,152.87793 C101.30566,152.875848 91.8310549,160.778223 86.0000002,170.938074 C75.0712892,192.129885 14.4052736,306.129152 3.9140625,325.985984 C-6.5771486,345.842815 6.66015726,366.748976 29.489258,354.215306 C52.3183588,341.681636 148.41505,286.287478 166.000003,270.61631 C183.584957,254.945142 166.000003,231.863368 150.599613,241.346984 C135.199222,250.8306 129.000003,256.247086 129.000003,256.247086 C129.000003,256.247086 119.828247,183.620982 116.848755,152.87793 Z" id="right-hand" fill="#333333"></path>
                    <path d="M370.583764,152.871094 C355.040669,152.869012 345.566064,160.771387 339.735009,170.931238 C328.806298,192.12305 268.140283,306.122317 257.649072,325.979148 C247.157861,345.835979 260.395166,366.742141 283.224267,354.20847 C306.053368,341.6748 402.150059,286.280643 419.735012,270.609474 C437.319966,254.938306 419.735012,231.856533 404.334622,241.340149 C388.934231,250.823765 382.735012,256.24025 382.735012,256.24025 C382.735012,256.24025 373.563256,183.614146 370.583764,152.871094 Z" id="right-hand" fill="#333333" transform="translate(340.537459, 255.435547) scale(-1, 1) translate(-340.537459, -255.435547) "></path>
                </g>
            </g>
        </g>
    </g>
</svg>